<?xml version="1.0" encoding="UTF-8" standalone="no"?>
<!DOCTYPE svg PUBLIC "-//W3C//DTD SVG 20010904//EN" "http://www.w3.org/TR/2001/REC-SVG-20010904/DTD/svg10.dtd">
<svg version="1.0" xmlns="http://www.w3.org/2000/svg" width="1000.000000pt" height="1200.000000pt" viewBox="0 0 1000.000000 1200.000000" preserveAspectRatio="xMidYMid meet">

<g transform="translate(0.000000,1200.000000) scale(0.100000,-0.100000)" stroke="none" fill="#2b7fff">
<path d="M4830 10959 c-342 -14 -663 -51 -860 -99 -25 -6 -52 -12 -60 -14 -8 -2 -35 -7 -60 -11 -25 -4 -49 -10 -55 -13 -5 -4 -15 -7 -22 -8 -58 -9 -308 -94 -468 -159 -113 -46 -325 -155 -325 -167 0 -5 -4 -7 -8 -4 -5 3 -19 -4 -30 -15 -12 -11 -22 -17 -22 -14 0 8 -143 -90 -159 -109 -7 -9 -18 -16 -23 -16 -24 0 -284 -216 -363 -302 -101 -110 -161 -181 -225 -268 -66 -90 -178 -269 -182 -292 -2 -7 -6 -15 -9 -18 -8 -6 -76 -153 -114 -245 -80 -195 -156 -477 -179 -665 -3 -25 -12 -98 -20 -162 -18 -137 -21 -547 -5 -683 6 -49 12 -110 15 -135 7 -65 53 -332 61 -350 3 -8 8 -26 10 -38 4 -25 64 -201 106 -313 36 -96 152 -330 176 -356 12 -12 21 -26 21 -30 0 -11 51 -87 83 -122 15 -17 27 -34 27 -37 0 -13 109 -141 187 -219 130 -131 283 -265 283 -250 0 5 10 -3 23 -17 24 -28 212 -154 237 -160 8 -2 17 -6 20 -9 35 -45 650 -328 650 -301 0 4 4 2 8 -4 9 -14 113 -51 287 -104 77 -23 145 -43 150 -45 6 -1 17 -5 25 -8 13 -5 140 -41 270 -77 57 -15 211 -51 260 -60 25 -5 70 -15 101 -24 31 -9 69 -18 85 -20 16 -2 36 -6 44 -9 18 -7 228 -59 250 -61 8 -2 28 -8 44 -14 16 -7 40 -14 55 -15 15 -2 31 -6 36 -9 6 -3 55 -17 110 -32 55 -15 154 -45 219 -66 65 -22 123 -37 127 -34 5 3 9 1 9 -5 0 -5 15 -13 33 -17 42 -10 38 -9 72 -23 17 -7 58 -23 93 -36 172 -66 394 -201 470 -287 9 -9 19 -15 24 -12 4 3 8 -2 8 -11 0 -8 10 -20 23 -25 12 -5 18 -9 14 -9 -5 -1 7 -20 26 -43 40 -49 113 -187 121 -228 1 -3 5 -11 10 -18 4 -7 6 -16 3 -18 -3 -3 -1 -20 4 -37 10 -33 17 -62 25 -107 10 -52 12 -298 3 -360 -16 -119 -22 -141 -71 -285 -68 -200 -243 -386 -453 -481 -33 -15 -66 -29 -74 -30 -8 -1 -35 -10 -61 -18 -26 -9 -92 -23 -146 -31 -54 -9 -100 -18 -103 -19 -3 -2 -35 -6 -71 -10 -36 -3 -90 -9 -120 -12 -30 -3 -80 -7 -110 -9 -30 -2 -706 -4 -1502 -4 -820 -1 -1457 -5 -1470 -10 -13 -5 -33 -26 -43 -47 -11 -22 -22 -41 -25 -44 -17 -15 -50 -70 -43 -70 4 0 1 -6 -8 -13 -16 -13 -142 -197 -175 -257 -10 -19 -29 -48 -41 -63 -13 -16 -23 -35 -23 -43 0 -8 -4 -14 -8 -14 -5 0 -41 -50 -81 -112 -58 -90 -71 -116 -66 -137 5 -22 78 -145 95 -161 3 -3 14 -22 24 -43 11 -20 23 -37 28 -37 4 0 8 -5 8 -10 0 -6 51 -86 112 -178 62 -92 119 -179 126 -193 7 -15 22 -35 31 -46 10 -11 21 -28 25 -39 3 -11 19 -34 35 -51 l29 -32 1594 3 c876 1 1625 5 1663 8 39 4 106 9 150 13 70 6 223 23 350 40 48 6 184 34 205 42 8 3 24 7 35 8 58 8 335 89 370 108 11 6 29 13 40 14 23 4 59 20 243 109 72 36 132 69 132 75 0 6 3 8 8 6 4 -3 41 17 82 44 180 117 234 159 398 315 201 191 432 552 527 824 14 41 30 84 35 95 5 11 13 36 19 55 5 19 17 54 25 77 9 24 18 57 20 75 3 18 10 48 15 67 6 19 8 37 6 42 -3 4 -1 10 4 13 5 3 14 43 21 88 6 46 13 97 16 113 28 191 36 342 30 540 -3 110 -6 207 -7 215 -3 43 -20 188 -24 210 -6 29 -14 83 -19 125 -38 322 -269 840 -490 1100 -28 33 -64 76 -81 95 -90 106 -336 330 -362 330 -6 0 -13 7 -17 15 -3 8 -12 15 -21 15 -8 0 -15 4 -15 9 0 7 -80 62 -195 133 -79 48 -175 98 -190 98 -8 0 -15 4 -15 8 0 8 -226 121 -253 126 -6 2 -34 13 -61 25 -43 19 -165 64 -347 128 -30 11 -63 19 -72 17 -9 -1 -17 3 -17 9 0 5 -3 7 -7 4 -3 -4 -11 -3 -17 2 -11 9 -258 83 -286 86 -9 0 -20 4 -25 7 -11 6 -70 20 -95 23 -9 0 -20 3 -25 6 -6 3 -46 15 -90 27 -44 12 -162 44 -263 72 -101 28 -191 52 -200 54 -9 2 -24 6 -32 9 -33 13 -94 26 -101 22 -4 -3 -9 -1 -11 3 -1 4 -46 20 -98 34 -52 15 -194 54 -315 88 -121 34 -224 63 -230 64 -5 2 -17 6 -25 9 -31 13 -151 56 -155 56 -3 1 -21 8 -41 16 -20 8 -39 15 -43 15 -3 0 -23 9 -44 20 -21 11 -42 18 -47 15 -4 -3 -10 -1 -12 3 -1 5 -46 31 -98 57 -52 27 -97 52 -100 55 -3 3 -21 17 -40 30 -103 71 -187 165 -252 280 -30 54 -82 204 -96 280 -19 100 -30 330 -18 385 2 12 7 48 11 80 7 55 12 84 19 110 1 6 8 30 15 55 6 25 16 53 21 62 6 10 10 22 10 27 0 5 5 22 12 38 6 15 11 31 10 36 -1 4 2 7 7 7 5 0 15 15 22 33 7 17 28 53 46 78 18 26 33 49 33 53 0 3 8 15 18 27 30 36 152 158 152 153 0 -7 84 58 88 68 2 5 7 8 12 8 4 0 34 15 67 33 32 18 105 51 163 74 58 22 114 44 125 48 11 5 25 9 31 10 5 2 55 12 110 25 54 12 110 24 124 27 14 4 29 5 34 4 5 -1 41 3 80 8 173 25 276 32 498 32 130 0 252 -2 270 -5 18 -3 67 -8 108 -11 41 -3 138 -11 215 -19 77 -8 147 -14 155 -14 71 -2 649 -94 826 -132 50 -11 107 -21 127 -24 20 -2 44 -7 54 -10 10 -3 36 -8 58 -11 49 -7 47 -7 220 -45 77 -17 149 -32 160 -35 11 -2 56 -13 99 -24 84 -22 141 -27 131 -12 -3 6 1 13 9 18 7 4 66 82 130 173 65 91 123 172 131 182 7 9 11 19 8 22 -4 3 -2 6 4 6 6 0 30 30 54 68 24 37 46 69 49 72 10 9 128 177 139 198 6 11 9 29 6 40 -5 27 -125 314 -137 327 -4 5 -8 17 -8 27 0 10 -5 18 -11 18 -5 0 -8 3 -5 8 2 4 -6 30 -20 57 -13 28 -24 54 -24 59 0 10 -52 129 -60 136 -3 3 -7 14 -8 25 -2 11 -12 34 -22 50 -9 17 -20 42 -24 57 -10 42 -29 54 -128 78 -118 28 -98 23 -273 70 -82 22 -163 42 -180 45 -16 2 -66 13 -110 24 -44 11 -82 18 -84 16 -2 -3 -11 0 -20 5 -43 22 -709 146 -842 156 -26 2 -60 6 -75 9 -130 26 -570 62 -774 64 -74 1 -169 3 -210 4 -41 1 -140 -1 -220 -4z"/>
</g>
</svg>