<?xml version="1.0" encoding="UTF-8" standalone="no"?>
<!DOCTYPE svg PUBLIC "-//W3C//DTD SVG 20010904//EN" "http://www.w3.org/TR/2001/REC-SVG-20010904/DTD/svg10.dtd">
<svg version="1.0" xmlns="http://www.w3.org/2000/svg" width="3420.000000pt" height="1248.000000pt" viewBox="0 0 3420.000000 1248.000000" preserveAspectRatio="xMidYMid meet">

<g transform="translate(0.000000,1248.000000) scale(0.100000,-0.100000)" stroke="none" fill="#2b7fff">
<path d="M0 6240 l0 -6240 17100 0 17100 0 0 6240 0 6240 -17100 0 -17100 0 0 -6240z m27663 5258 c450 -284 561 -355 588 -376 l29 -24 0 -1258 c0 -722 3 -1268 9 -1281 5 -13 7 -96 5 -184 -2 -88 -4 -322 -5 -520 -1 -450 -15 -1056 -29 -1238 -13 -168 -38 -306 -80 -427 -17 -50 -35 -117 -41 -148 -12 -75 -12 -2159 1 -2325 22 -286 76 -441 197 -559 91 -89 196 -134 383 -164 77 -13 233 -17 827 -21 659 -5 734 -7 746 -22 8 -9 94 -135 192 -281 98 -146 211 -313 251 -371 41 -59 74 -117 74 -130 0 -21 -132 -232 -280 -449 -77 -113 -93 -137 -159 -242 l-61 -96 -98 -8 c-152 -11 -1303 4 -1504 21 -268 21 -445 57 -659 131 -120 41 -313 132 -414 194 -162 100 -351 268 -466 415 -58 74 -174 255 -201 315 -139 300 -207 573 -245 975 -15 163 -17 409 -19 2560 -2 1309 -4 2416 -5 2460 -1 44 -1 659 1 1367 2 1183 3 1288 18 1301 10 8 78 53 152 99 74 47 236 151 360 231 161 104 234 146 255 147 22 0 73 -27 178 -92z m-20038 -212 c121 -3 265 -9 320 -15 55 -6 147 -16 205 -22 168 -17 344 -41 610 -85 205 -34 644 -129 900 -195 85 -22 191 -49 235 -60 154 -40 135 -22 203 -182 33 -78 91 -214 128 -302 36 -88 86 -206 110 -263 24 -57 44 -109 44 -117 0 -16 -126 -199 -385 -560 -105 -147 -157 -211 -172 -213 -12 -2 -77 10 -145 27 -114 28 -327 72 -643 135 -559 110 -1110 175 -1545 183 -284 6 -376 0 -640 -38 -273 -39 -520 -128 -690 -247 -308 -217 -465 -568 -447 -997 11 -252 64 -416 188 -585 161 -220 556 -401 1248 -575 57 -14 107 -27 110 -30 11 -6 455 -128 726 -200 730 -191 1153 -359 1545 -613 376 -243 673 -575 865 -964 181 -367 259 -715 272 -1208 8 -302 -15 -542 -78 -815 -29 -128 -39 -158 -106 -345 -112 -308 -329 -649 -547 -858 -405 -386 -937 -629 -1576 -717 -346 -48 -330 -48 -2039 -52 -888 -2 -1625 -2 -1636 1 -12 3 -33 23 -47 43 -25 38 -350 536 -434 665 -24 37 -44 77 -44 88 0 19 42 85 375 592 l136 207 1537 4 c1636 4 1558 2 1848 51 276 47 476 160 616 350 73 98 89 129 129 248 80 242 88 495 24 737 -55 206 -160 348 -363 490 -256 178 -785 352 -1722 565 -118 27 -130 30 -260 66 -752 210 -1250 437 -1620 739 -278 228 -507 512 -642 800 -149 316 -226 607 -269 1007 -18 175 -7 624 20 803 66 436 198 810 393 1117 212 331 463 579 830 818 330 215 800 385 1272 461 276 45 679 75 881 68 33 -2 159 -5 280 -7z m8407 -2026 c128 -11 294 -24 368 -30 74 -6 164 -16 200 -21 36 -5 146 -16 245 -23 257 -20 713 -64 825 -80 129 -18 198 -51 278 -134 70 -72 102 -126 102 -170 0 -21 6 -31 20 -35 20 -5 20 -14 20 -3480 0 -3435 0 -3476 -19 -3482 -11 -3 -93 -55 -183 -114 -494 -327 -564 -371 -590 -371 -26 0 -77 31 -448 272 -85 56 -189 121 -230 146 -41 24 -85 53 -97 65 l-23 20 0 2888 c0 2551 -2 2888 -15 2899 -9 7 -95 21 -202 31 -869 88 -1254 88 -1663 0 -952 -204 -1576 -975 -1671 -2066 -16 -189 -6 -537 21 -713 41 -271 121 -533 235 -767 120 -247 242 -414 446 -610 302 -290 669 -446 1209 -515 82 -11 381 -9 584 3 44 2 41 7 176 -208 73 -117 232 -359 258 -395 51 -70 112 -181 112 -202 0 -24 -55 -114 -263 -428 -120 -181 -151 -227 -204 -300 l-42 -58 -97 -7 c-180 -14 -663 0 -829 24 -434 62 -849 189 -1180 360 -146 76 -387 220 -443 265 -15 12 -40 30 -55 40 -61 38 -307 259 -419 375 -288 299 -497 600 -692 996 -148 300 -271 704 -335 1100 -110 672 -65 1453 119 2065 81 271 96 313 171 488 154 361 337 659 578 939 327 381 686 663 1106 868 399 195 717 282 1350 371 206 28 910 25 1277 -6z m7523 4 c99 -8 241 -19 315 -25 74 -5 223 -18 330 -30 540 -56 680 -70 850 -84 186 -15 274 -31 333 -62 50 -26 133 -91 160 -126 30 -40 77 -131 77 -151 0 -7 7 -16 15 -20 13 -5 15 -395 15 -3429 l0 -3424 -73 -46 c-40 -25 -85 -50 -99 -56 -15 -6 -46 -24 -69 -41 -23 -16 -46 -30 -51 -30 -6 0 -35 -17 -66 -39 -32 -21 -109 -71 -172 -112 -120 -75 -319 -204 -381 -245 -65 -44 -35 -60 -547 282 -107 71 -211 139 -233 152 -21 13 -39 29 -39 35 2 77 -12 4539 -15 4987 -3 333 -5 650 -5 705 0 55 -4 106 -9 114 -7 11 -41 17 -123 22 -62 4 -147 12 -188 17 -186 27 -617 51 -917 52 -297 0 -482 -23 -758 -95 -408 -106 -836 -405 -1060 -740 -77 -114 -197 -342 -254 -480 -58 -140 -150 -420 -186 -562 -45 -181 -59 -319 -59 -598 0 -234 14 -385 50 -530 9 -33 22 -85 29 -115 30 -122 101 -303 175 -448 89 -173 169 -267 251 -296 38 -14 62 -33 102 -79 160 -186 291 -314 414 -405 401 -295 871 -426 1413 -393 80 5 151 5 158 1 8 -4 23 -23 35 -43 31 -50 112 -183 192 -312 37 -60 82 -135 100 -165 17 -31 52 -87 76 -125 97 -150 94 -142 75 -182 -9 -19 -50 -87 -90 -151 -40 -65 -86 -139 -102 -165 -16 -27 -57 -94 -91 -150 -34 -56 -73 -122 -87 -147 -14 -25 -40 -67 -58 -95 l-33 -50 -95 -6 c-515 -35 -987 31 -1519 213 -353 120 -766 359 -1062 614 -348 300 -631 649 -856 1059 -142 256 -279 615 -356 925 -89 361 -116 594 -124 1050 -6 338 3 513 38 725 11 66 24 148 30 182 32 216 161 681 229 828 15 33 45 103 65 155 39 98 182 382 219 435 12 17 39 59 61 95 21 36 79 119 128 184 498 661 1108 1078 1882 1287 78 21 421 91 530 107 101 16 269 32 430 42 191 11 780 2 1000 -16z"/>
</g>
</svg>